<svg width="1200" height="900" viewBox="0 0 1200 900" fill="none" xmlns="http://www.w3.org/2000/svg">
  <rect width="1200" height="900" rx="48" fill="#F8FAFC"/>
  <rect x="80" y="80" width="1040" height="740" rx="36" fill="url(#bg)"/>
  <rect x="140" y="160" width="360" height="420" rx="28" fill="white" fill-opacity="0.92"/>
  <rect x="540" y="160" width="520" height="240" rx="28" fill="white" fill-opacity="0.92"/>
  <rect x="540" y="430" width="520" height="240" rx="28" fill="white" fill-opacity="0.92"/>
  <circle cx="270" cy="270" r="92" fill="url(#accent)"/>
  <path d="M208 270C208 234.654 236.654 206 272 206H304C339.346 206 368 234.654 368 270V288C368 323.346 339.346 352 304 352H272C236.654 352 208 323.346 208 288V270Z" fill="#0F172A" fill-opacity="0.08"/>
  <rect x="180" y="390" width="180" height="18" rx="9" fill="#E2E8F0"/>
  <rect x="180" y="426" width="240" height="18" rx="9" fill="#E2E8F0"/>
  <rect x="180" y="462" width="200" height="18" rx="9" fill="#E2E8F0"/>
  <rect x="580" y="210" width="220" height="18" rx="9" fill="#E2E8F0"/>
  <rect x="580" y="246" width="180" height="18" rx="9" fill="#E2E8F0"/>
  <rect x="580" y="282" width="260" height="18" rx="9" fill="#E2E8F0"/>
  <rect x="580" y="480" width="220" height="18" rx="9" fill="#E2E8F0"/>
  <rect x="580" y="516" width="180" height="18" rx="9" fill="#E2E8F0"/>
  <rect x="580" y="552" width="260" height="18" rx="9" fill="#E2E8F0"/>
  <rect x="840" y="192" width="140" height="88" rx="20" fill="url(#accent)" fill-opacity="0.15"/>
  <rect x="840" y="462" width="140" height="88" rx="20" fill="url(#accent)" fill-opacity="0.15"/>
  <defs>
    <linearGradient id="bg" x1="80" y1="80" x2="1120" y2="820" gradientUnits="userSpaceOnUse">
      <stop stop-color="#ECFEF4"/>
      <stop offset="1" stop-color="#EFF6FF"/>
    </linearGradient>
    <linearGradient id="accent" x1="178" y1="178" x2="358" y2="358" gradientUnits="userSpaceOnUse">
      <stop stop-color="#10B981"/>
      <stop offset="1" stop-color="#34D399"/>
    </linearGradient>
  </defs>
</svg>
